<svg width="32" height="32" viewBox="0 0 32 32" fill="none" xmlns="http://www.w3.org/2000/svg">
<g clip-path="url(#clip0_79_981)">
<mask id="mask0_79_981" style="mask-type:luminance" maskUnits="userSpaceOnUse" x="0" y="0" width="32" height="32">
<path d="M32 0H0V32H32V0Z" fill="white"/>
<path d="M19.3333 8C25.5925 8 30.6667 13.0741 30.6667 19.3333C30.6667 25.5925 25.5925 30.6667 19.3333 30.6667C13.0741 30.6667 8 25.5925 8 19.3333C8 13.0741 13.0741 8 19.3333 8ZM19.3385 13.3333C18.6021 13.3333 18.0052 13.9303 18.0052 14.6667V18H14.6667C13.9304 18.0001 13.3333 18.5971 13.3333 19.3333C13.3333 20.0696 13.9304 20.6665 14.6667 20.6667H18.0052V24C18.0052 24.7364 18.6021 25.3333 19.3385 25.3333C20.0749 25.3333 20.6719 24.7364 20.6719 24V20.6667H24C24.7364 20.6667 25.3333 20.0697 25.3333 19.3333C25.3333 18.5969 24.7364 18 24 18H20.6719V14.6667C20.6719 13.9303 20.0749 13.3333 19.3385 13.3333Z" fill="black"/>
</mask>
<g mask="url(#mask0_79_981)">
<path d="M12.6667 1.33337C18.9259 1.33337 24 6.40748 24 12.6667C24 14.075 23.7416 15.4227 23.2722 16.6667H24C25.4728 16.6667 26.6667 17.8606 26.6667 19.3334C26.6667 20.8062 25.4728 22 24 22H22.0052V24C22.0052 25.4728 20.8114 26.6667 19.3386 26.6667C17.8658 26.6667 16.6719 25.4728 16.6719 24V23.2695C15.4264 23.7403 14.0771 24 12.6667 24C6.40748 24 1.33337 18.9259 1.33337 12.6667C1.33337 6.40748 6.40748 1.33337 12.6667 1.33337Z" fill="url(#paint0_linear_79_981)"/>
</g>
<mask id="mask1_79_981" style="mask-type:luminance" maskUnits="userSpaceOnUse" x="8" y="8" width="23" height="23">
<path d="M19.3333 8C25.5925 8 30.6667 13.0741 30.6667 19.3333C30.6667 25.5925 25.5925 30.6667 19.3333 30.6667C13.0741 30.6667 8 25.5925 8 19.3333C8 13.0741 13.0741 8 19.3333 8ZM19.3385 13.3333C18.6021 13.3333 18.0052 13.9303 18.0052 14.6667V18H14.6667C13.9304 18.0001 13.3333 18.5971 13.3333 19.3333C13.3333 20.0696 13.9304 20.6665 14.6667 20.6667H18.0052V24C18.0052 24.7364 18.6021 25.3333 19.3385 25.3333C20.0749 25.3333 20.6719 24.7364 20.6719 24V20.6667H24C24.7364 20.6667 25.3333 20.0697 25.3333 19.3333C25.3333 18.5969 24.7364 18 24 18H20.6719V14.6667C20.6719 13.9303 20.0749 13.3333 19.3385 13.3333Z" fill="white"/>
</mask>
<g mask="url(#mask1_79_981)">
<g filter="url(#filter0_f_79_981)">
<path d="M12.6667 1.33337C18.9259 1.33337 24 6.40748 24 12.6667C24 14.075 23.7416 15.4227 23.2722 16.6667H24C25.4728 16.6667 26.6667 17.8606 26.6667 19.3334C26.6667 20.8062 25.4728 22 24 22H22.0052V24C22.0052 25.4728 20.8114 26.6667 19.3386 26.6667C17.8658 26.6667 16.6719 25.4728 16.6719 24V23.2695C15.4264 23.7403 14.0771 24 12.6667 24C6.40748 24 1.33337 18.9259 1.33337 12.6667C1.33337 6.40748 6.40748 1.33337 12.6667 1.33337Z" fill="url(#paint1_linear_79_981)"/>
</g>
</g>
<path d="M19.3333 8C25.5925 8 30.6667 13.0741 30.6667 19.3333C30.6667 25.5925 25.5925 30.6667 19.3333 30.6667C13.0741 30.6667 8 25.5925 8 19.3333C8 13.0741 13.0741 8 19.3333 8ZM19.3385 13.3333C18.6021 13.3333 18.0052 13.9303 18.0052 14.6667V18H14.6667C13.9304 18.0001 13.3333 18.5971 13.3333 19.3333C13.3333 20.0696 13.9304 20.6665 14.6667 20.6667H18.0052V24C18.0052 24.7364 18.6021 25.3333 19.3385 25.3333C20.0749 25.3333 20.6719 24.7364 20.6719 24V20.6667H24C24.7364 20.6667 25.3333 20.0697 25.3333 19.3333C25.3333 18.5969 24.7364 18 24 18H20.6719V14.6667C20.6719 13.9303 20.0749 13.3333 19.3385 13.3333Z" fill="url(#paint2_linear_79_981)"/>
<path d="M19.3333 8C25.5925 8 30.6667 13.0741 30.6667 19.3333C30.6667 25.5925 25.5925 30.6667 19.3333 30.6667C13.0741 30.6667 8 25.5925 8 19.3333C8 13.0741 13.0741 8 19.3333 8ZM19.3333 9C13.6264 9 9 13.6264 9 19.3333C9 25.0403 13.6264 29.6667 19.3333 29.6667C25.0403 29.6667 29.6667 25.0403 29.6667 19.3333C29.6667 13.6264 25.0403 9 19.3333 9Z" fill="url(#paint3_linear_79_981)"/>
</g>
<defs>
<filter id="filter0_f_79_981" x="-2.66663" y="-2.66663" width="33.3334" height="33.3334" filterUnits="userSpaceOnUse" color-interpolation-filters="sRGB">
<feFlood flood-opacity="0" result="BackgroundImageFix"/>
<feBlend mode="normal" in="SourceGraphic" in2="BackgroundImageFix" result="shape"/>
<feGaussianBlur stdDeviation="2" result="effect1_foregroundBlur_79_981"/>
</filter>
<linearGradient id="paint0_linear_79_981" x1="13.6667" y1="1.33337" x2="13.6667" y2="26" gradientUnits="userSpaceOnUse">
<stop stop-color="#90A1B9"/>
<stop offset="1" stop-color="#314158"/>
</linearGradient>
<linearGradient id="paint1_linear_79_981" x1="13.6667" y1="1.33337" x2="13.6667" y2="26" gradientUnits="userSpaceOnUse">
<stop stop-color="#575757"/>
<stop offset="1" stop-color="#151515"/>
</linearGradient>
<linearGradient id="paint2_linear_79_981" x1="19.3333" y1="8" x2="19.3333" y2="30.6667" gradientUnits="userSpaceOnUse">
<stop stop-color="#53EAFD"/>
<stop offset="1" stop-color="#00B8DB"/>
</linearGradient>
<linearGradient id="paint3_linear_79_981" x1="19.3333" y1="8" x2="19.3333" y2="25.3333" gradientUnits="userSpaceOnUse">
<stop stop-color="white"/>
<stop offset="1" stop-color="white" stop-opacity="0"/>
</linearGradient>
<clipPath id="clip0_79_981">
<rect width="32" height="32" fill="white"/>
</clipPath>
</defs>
</svg>
