<svg width="800" height="800" viewBox="0 0 800 800" fill="none" xmlns="http://www.w3.org/2000/svg">
<path d="M400 400C380.222 400 360.888 405.865 344.443 416.853C327.998 427.841 315.18 443.459 307.612 461.732C300.043 480.004 298.063 500.111 301.921 519.509C305.78 538.907 315.304 556.725 329.289 570.711C343.274 584.696 361.093 594.22 380.491 598.078C399.889 601.937 419.995 599.957 438.268 592.388C456.541 584.819 472.158 572.002 483.147 555.557C494.135 539.112 500 519.778 500 500C500 473.478 489.464 448.043 470.71 429.289C451.957 410.536 426.521 400 400 400ZM400 533.333C393.407 533.333 386.962 531.378 381.481 527.716C375.999 524.053 371.727 518.847 369.204 512.756C366.681 506.665 366.021 499.963 367.307 493.497C368.593 487.031 371.768 481.091 376.429 476.43C381.091 471.768 387.031 468.593 393.497 467.307C399.963 466.021 406.665 466.681 412.756 469.204C418.847 471.727 424.053 475.999 427.715 481.481C431.378 486.963 433.333 493.407 433.333 500C433.333 508.84 429.821 517.319 423.57 523.57C417.319 529.821 408.84 533.333 400 533.333ZM376.333 76.341C379.503 73.3063 383.241 70.9275 387.333 69.341C391.323 67.5775 395.637 66.6666 400 66.6666C404.362 66.6666 408.676 67.5775 412.666 69.341C416.758 70.9275 420.496 73.3063 423.666 76.341L500 151.341C506.453 157.795 510.079 166.548 510.079 175.674C510.079 184.801 506.453 193.554 500 200.008C493.546 206.461 484.793 210.087 475.666 210.087C466.54 210.087 457.787 206.461 451.333 200.008L433.333 180.341V300.008C433.333 308.848 429.821 317.327 423.57 323.578C417.319 329.829 408.84 333.341 400 333.341C391.159 333.341 382.681 329.829 376.429 323.578C370.178 317.327 366.666 308.848 366.666 300.008V180.341L348.666 200.008C342.213 206.461 333.46 210.087 324.333 210.087C315.206 210.087 306.453 206.461 300 200.008C293.546 193.554 289.92 184.801 289.92 175.674C289.92 166.548 293.546 157.795 300 151.341L376.333 76.341ZM633.333 500C633.333 493.407 631.378 486.963 627.715 481.481C624.053 475.999 618.847 471.727 612.756 469.204C606.665 466.681 599.963 466.021 593.497 467.307C587.031 468.593 581.091 471.768 576.429 476.43C571.768 481.091 568.593 487.031 567.307 493.497C566.021 499.963 566.681 506.665 569.204 512.756C571.727 518.847 575.999 524.053 581.481 527.716C586.962 531.378 593.407 533.333 600 533.333C608.84 533.333 617.319 529.821 623.57 523.57C629.821 517.319 633.333 508.84 633.333 500ZM666.666 266.667H566.666C557.826 266.667 549.347 270.179 543.096 276.43C536.845 282.681 533.333 291.159 533.333 300C533.333 308.841 536.845 317.319 543.096 323.57C549.347 329.821 557.826 333.333 566.666 333.333H666.666C675.507 333.333 683.985 336.845 690.237 343.096C696.488 349.348 700 357.826 700 366.667V633.333C700 642.174 696.488 650.652 690.237 656.904C683.985 663.155 675.507 666.667 666.666 666.667H133.333C124.492 666.667 116.014 663.155 109.763 656.904C103.512 650.652 99.9997 642.174 99.9997 633.333V366.667C99.9997 357.826 103.512 349.348 109.763 343.096C116.014 336.845 124.492 333.333 133.333 333.333H233.333C242.174 333.333 250.652 329.821 256.903 323.57C263.154 317.319 266.666 308.841 266.666 300C266.666 291.159 263.154 282.681 256.903 276.43C250.652 270.179 242.174 266.667 233.333 266.667H133.333C106.811 266.667 81.376 277.202 62.6223 295.956C43.8687 314.71 33.333 340.145 33.333 366.667V633.333C33.333 659.855 43.8687 685.29 62.6223 704.044C81.376 722.798 106.811 733.333 133.333 733.333H666.666C693.188 733.333 718.623 722.798 737.377 704.044C756.131 685.29 766.666 659.855 766.666 633.333V366.667C766.666 340.145 756.131 314.71 737.377 295.956C718.623 277.202 693.188 266.667 666.666 266.667ZM166.666 500C166.666 506.593 168.621 513.037 172.284 518.519C175.947 524.001 181.153 528.273 187.244 530.796C193.334 533.319 200.037 533.979 206.503 532.693C212.969 531.407 218.908 528.232 223.57 523.57C228.232 518.908 231.406 512.969 232.693 506.503C233.979 500.037 233.319 493.335 230.796 487.244C228.273 481.153 224 475.947 218.519 472.284C213.037 468.622 206.592 466.667 200 466.667C191.159 466.667 182.681 470.179 176.429 476.43C170.178 482.681 166.666 491.159 166.666 500Z" fill="black"/>
</svg>
