<svg width="18" height="18" viewBox="0 0 18 18" fill="none" xmlns="http://www.w3.org/2000/svg">
<path fill-rule="evenodd" clip-rule="evenodd" d="M0.554136 13.5756C1.34525 11.4759 3.36866 9.978 5.74997 9.978C8.13128 9.978 10.1547 11.4759 10.9458 13.5756C11.3059 14.5315 10.7272 15.5154 9.84596 15.8102C8.82613 16.1509 7.42657 16.477 5.75097 16.477C4.0754 16.477 2.67527 16.151 1.65458 15.8104C0.771585 15.5163 0.19485 14.5312 0.554136 13.5756Z" fill="url(#paint0_linear_97_1219)"/>
<path d="M5.75 8.50049C6.99267 8.50049 8 7.49361 8 6.25049C8 5.00736 6.99267 4.00049 5.75 4.00049C4.50733 4.00049 3.5 5.00736 3.5 6.25049C3.5 7.49361 4.50733 8.50049 5.75 8.50049Z" fill="url(#paint1_linear_97_1219)"/>
<g opacity="0.5">
<path d="M12.5523 13.9772C13.9847 13.9159 15.1901 13.6248 16.096 13.3222C16.9772 13.0274 17.5559 12.0435 17.1958 11.0875C16.4047 8.98793 14.3813 7.48999 12 7.48999C10.5581 7.48999 9.24737 8.03921 8.26202 8.93866C10.147 9.65809 11.6398 11.1632 12.3495 13.0467C12.4675 13.3601 12.5329 13.6723 12.5523 13.9772Z" fill="url(#paint2_linear_97_1219)"/>
<path d="M12 6.00049C13.2427 6.00049 14.25 4.99361 14.25 3.75049C14.25 2.50736 13.2427 1.50049 12 1.50049C10.7573 1.50049 9.75 2.50736 9.75 3.75049C9.75 4.99361 10.7573 6.00049 12 6.00049Z" fill="url(#paint3_linear_97_1219)"/>
</g>
<defs>
<linearGradient id="paint0_linear_97_1219" x1="5.75007" y1="4.00049" x2="5.75007" y2="16.477" gradientUnits="userSpaceOnUse">
<stop stop-color="#00B8DB"/>
<stop offset="1" stop-color="#007595"/>
</linearGradient>
<linearGradient id="paint1_linear_97_1219" x1="5.75007" y1="4.00049" x2="5.75007" y2="16.477" gradientUnits="userSpaceOnUse">
<stop stop-color="#00B8DB"/>
<stop offset="1" stop-color="#007595"/>
</linearGradient>
<linearGradient id="paint2_linear_97_1219" x1="12.7832" y1="1.50049" x2="12.7832" y2="13.9772" gradientUnits="userSpaceOnUse">
<stop stop-color="#00B8DB"/>
<stop offset="1" stop-color="#007595"/>
</linearGradient>
<linearGradient id="paint3_linear_97_1219" x1="12.7832" y1="1.50049" x2="12.7832" y2="13.9772" gradientUnits="userSpaceOnUse">
<stop stop-color="#00B8DB"/>
<stop offset="1" stop-color="#007595"/>
</linearGradient>
</defs>
</svg>
