<svg width="450" height="206" viewBox="0 0 450 206" fill="none" xmlns="http://www.w3.org/2000/svg">
<path fill-rule="evenodd" clip-rule="evenodd" d="M449.912 74.42C449.598 76.586 448.203 78.505 446.287 79.445C445.555 79.793 444.793 79.99 444.021 80.023C443.588 82.691 442.151 84.628 439.757 85.786C437.008 87.119 433.416 87.253 429.938 87.385C425.366 87.56 419.073 87.952 414.749 89.389C410.54 95.277 417.84 97.598 421.449 92.563C425.204 94.091 430.426 97.461 427.41 101.94C427.137 102.344 426.856 102.765 426.575 103.328C425.878 104.712 425.948 106.397 426.022 108.174C426.103 110.009 426.169 111.906 425.457 113.734C424.911 115.104 424.019 116.1 422.816 116.691C420.953 117.591 418.733 117.368 416.585 117.157C415.61 117.058 414.693 116.973 413.852 116.985L412.754 117.007L412.436 115.954C412.081 114.768 412.009 113.84 411.956 113.157C411.912 112.672 411.884 112.342 411.762 112.063C411.645 111.919 411.532 111.763 411.407 111.607C411.159 111.389 410.796 111.165 410.239 110.863L410.175 110.835C409.476 110.453 408.986 110.242 408.65 110.124C408.502 108.108 408.173 106.093 407.516 104.123C407.019 102.678 406.33 101.285 405.469 99.997C404.609 98.716 403.558 97.565 402.422 96.528C401.295 95.495 400.105 94.573 398.938 93.68C397.767 92.779 396.615 91.896 395.552 90.946C394.49 90.005 393.503 89.016 392.71 87.91C392.309 87.374 391.946 86.785 391.665 86.216C391.355 85.592 391.097 84.9571 390.874 84.3111C390.421 83.0231 390.155 81.676 390.09 80.312C390.005 78.942 390.145 77.563 390.39 76.182C390.88 73.412 391.963 70.714 393.031 67.981C394.13 65.256 395.286 62.494 396.085 59.592C396.869 56.701 397.262 53.612 396.667 50.691C396.72 53.66 396.026 56.523 394.964 59.225C393.928 61.947 392.574 64.5371 391.306 67.2271C390.027 69.8981 388.827 72.699 388.15 75.732C387.813 77.249 387.663 78.828 387.724 80.415C387.786 82 388.08 83.586 388.586 85.092C388.847 85.841 389.152 86.576 389.499 87.275C389.88 88.019 390.304 88.688 390.791 89.333C391.758 90.609 392.885 91.71 394.061 92.687C396.436 94.625 398.951 96.192 401.19 97.963C403.405 99.727 405.237 101.941 406.407 104.556C407.262 106.382 407.93 108.489 408.368 110.502L408.38 110.485C408.577 111.318 408.759 112.149 408.917 112.99C409.587 115.703 409.777 117.748 406.429 121.183C405.575 122.056 404.413 122.813 403.299 123.544C402.732 123.912 402.215 124.261 401.748 124.592C400.799 125.428 399.933 126.345 399.329 127.567C399.319 127.683 399.316 127.797 399.319 127.91L399.462 131.032L396.983 129.133C394.869 127.508 393.879 125.218 392.929 123.018C392.228 121.403 391.602 119.943 390.61 118.851C389.473 121.871 386.989 125.143 385.179 126.889C384.37 127.672 383.508 128.563 382.678 129.42C381.324 130.817 379.925 132.269 378.613 133.369L377.029 134.715L376.308 132.757C375.924 131.691 375.941 129.997 375.974 128.036C375.978 127.492 375.983 126.799 375.978 126.134L375.946 126.132L375.974 126.134C376.471 124.707 376.79 123.209 376.967 121.705C377.276 118.852 377.08 115.909 376.168 113.108C375.938 112.413 375.638 111.718 375.319 111.085C374.999 110.433 374.664 109.798 374.308 109.165C373.592 107.916 372.791 106.706 371.952 105.545C370.264 103.207 368.367 101.056 366.414 98.973C362.528 94.761 358.055 91.137 353.588 87.653L346.839 82.509C345.714 81.645 344.624 80.79 343.518 79.902L340.204 77.262C335.791 73.781 331.501 70.155 328.25 65.73C326.616 63.536 325.257 61.139 324.27 58.599C323.286 56.056 322.655 53.3651 322.355 50.6301C322.044 47.8911 322.079 45.105 322.304 42.327C322.416 40.94 322.591 39.549 322.804 38.166C323.015 36.803 323.338 35.456 323.761 34.14C324.591 31.505 325.89 28.997 327.71 26.899C329.524 24.803 331.897 23.167 334.572 22.226C333.201 22.581 331.87 23.114 330.63 23.823C329.383 24.536 328.24 25.427 327.22 26.443C325.17 28.492 323.675 31.05 322.647 33.748C322.126 35.102 321.735 36.506 321.442 37.915C321.155 39.325 320.918 40.7361 320.735 42.1581C320.361 45.0131 320.26 47.904 320.485 50.804C320.698 53.7 321.276 56.588 322.293 59.341C323.295 62.096 324.706 64.697 326.394 67.072C328.094 69.454 330.086 71.59 332.175 73.569C334.271 75.552 336.48 77.375 338.692 79.148L342.032 81.775C343.141 82.654 344.274 83.528 345.407 84.39L352.202 89.472C354.467 91.163 356.697 92.869 358.851 94.654C361.002 96.454 363.079 98.311 365.066 100.286C367.051 102.272 368.957 104.317 370.695 106.5C371.551 107.584 372.367 108.715 373.115 109.881C373.849 111.058 374.558 112.266 375.051 113.516C376.056 116.053 376.408 118.874 376.294 121.65C376.239 123.044 376.049 124.437 375.712 125.794C375.7 125.862 375.574 126.048 375.56 126.111L375.581 126.112C375.496 126.24 375.404 126.367 375.301 126.515C374.285 128.111 373.698 130.031 373.068 132.068C372.244 134.734 371.402 137.497 369.482 139.697C368.478 140.835 367.254 141.875 366.069 142.877C365.598 143.282 365.137 143.67 364.699 144.06C364.188 144.395 363.633 144.651 363.099 144.936C363.099 145.02 363.079 145.23 363.026 145.766L363.098 144.937C362.999 144.992 362.844 145.145 362.745 145.194C362.435 145.348 362.129 145.495 361.82 145.642C360.478 146.257 359.108 146.831 357.718 147.299C357.019 147.542 356.321 147.752 355.619 147.922C355.487 147.953 355.353 147.979 355.222 148.01C356.468 146.524 357.409 144.768 357.955 142.906C358.69 140.465 358.784 137.896 358.521 135.415C358.242 132.927 357.611 130.499 356.691 128.19C355.769 125.88 354.592 123.675 353.171 121.623C352.454 120.594 351.685 119.613 350.824 118.679C349.983 117.759 349.106 116.911 348.198 116.078C346.383 114.413 344.479 112.885 342.535 111.423C338.647 108.493 334.597 105.888 330.813 103.021C327.026 100.153 323.479 97.019 320.673 93.266C319.98 92.338 319.325 91.355 318.736 90.368C318.136 89.352 317.579 88.321 317.058 87.264C316.008 85.147 315.142 82.952 314.413 80.697C313.694 78.442 313.093 76.144 312.658 73.809C312.214 71.473 311.935 69.103 311.795 66.726C311.534 61.972 311.902 57.151 313.21 52.509C311.479 57.011 310.757 61.894 310.744 66.752C310.731 69.184 310.916 71.626 311.255 74.036C311.592 76.453 312.082 78.849 312.763 81.201C313.428 83.554 314.258 85.861 315.265 88.104C315.77 89.219 316.32 90.34 316.932 91.397C317.567 92.488 318.216 93.524 318.945 94.534C320.386 96.547 322.026 98.41 323.79 100.135C325.556 101.851 327.449 103.414 329.375 104.896C333.245 107.862 337.277 110.515 341.11 113.34C342.686 114.513 343.741 115.19 346.63 117.806C347.497 118.59 348.342 119.419 349.157 120.253C349.938 121.074 350.674 121.973 351.357 122.905C352.713 124.781 353.86 126.831 354.767 128.978C355.661 131.119 356.358 133.355 356.684 135.647C357.019 137.929 356.973 140.265 356.424 142.481C355.883 144.691 354.754 146.749 353.131 148.386L351.995 149.531L353.578 149.458C354.42 149.419 355.175 149.227 355.911 149.003C356.655 148.784 357.365 148.513 358.066 148.228C359.467 147.652 360.821 147 362.147 146.273C362.434 146.115 362.732 145.94 363.025 145.769C363.178 146.4 363.335 147.034 363.497 147.692C364.206 150.478 364.543 153.378 364.863 156.191C365.128 158.418 365.392 160.727 365.847 162.911C366.447 165.841 368.505 168.886 370.49 171.836C372.959 175.497 375.512 179.274 375.71 183.297C377.07 183.652 380.273 184.02 381.938 184.216C383.933 184.445 384.667 184.54 385.085 184.668C388.268 185.655 388.828 185.956 389.614 187.931C389.796 188.397 390.033 188.985 390.476 189.815C390.643 190.131 390.877 190.514 391.121 190.917C391.906 192.188 392.776 193.626 393.055 195.05C393.48 197.247 393.11 199.068 391.954 200.471C390.333 202.44 387.276 203.396 382.605 203.396C380.726 203.396 378.923 203.249 377.47 203.131L376.624 203.066C375.399 202.969 374.007 202.941 372.546 202.913C369.551 202.86 366.456 202.804 363.919 202.163C358.828 200.885 358.092 197.938 357.308 194.819C357.081 193.902 356.852 192.96 356.493 191.945C355.696 189.708 353.665 188.62 351.318 187.354C349.094 186.161 346.799 184.927 345.354 182.574C344.68 181.484 344.272 180.42 343.874 179.407C343.303 177.942 342.764 176.561 341.451 175.185C340.451 174.12 339.326 173.189 338.144 172.202C336.417 170.755 334.617 169.264 333.184 167.312C330.207 163.269 326.464 157.904 323.832 152.221C323.568 151.685 323.353 151.106 323.124 150.499L323.114 150.484C321.713 148.833 320.102 147.411 318.058 146.473C317.689 146.307 317.309 146.154 316.926 146.015C316.787 146.032 316.656 146.051 316.524 146.069C315.739 146.171 314.928 146.268 314.124 146.268C308.435 146.248 303.678 144.317 299.539 140.389C298.939 139.813 298.405 139.165 297.893 138.527C296.865 137.256 296.092 136.386 295.213 136.063L295.237 136.05L295.259 136.039V136.038C295.148 136 295.02 135.967 294.876 135.939C294.792 135.923 294.703 135.91 294.608 135.9C294.703 135.91 294.793 135.924 294.876 135.939C295.019 135.965 295.145 135.999 295.256 136.037C296.254 135.472 297.288 134.983 298.351 134.504C299.582 133.941 300.85 133.406 302.125 132.821C303.393 132.223 304.684 131.571 305.893 130.74C308.28 129.113 310.411 127.01 311.913 124.522C313.424 122.034 314.305 119.295 314.736 116.52C313.355 118.97 312.022 121.369 310.353 123.434C308.697 125.505 306.724 127.246 304.531 128.74C302.404 130.204 299.859 131.346 297.46 132.83C296.26 133.574 295.064 134.397 294.022 135.397L294.066 135.419C293.827 135.624 293.523 135.902 293.112 136.323L293.157 136.342C293.067 136.44 292.979 136.54 292.895 136.644C291.446 137.891 289.709 140.461 288.953 141.595C288.721 141.938 288.515 142.247 288.337 142.499C286.398 145.257 284.749 148.313 283.152 151.27C281.514 154.321 279.804 157.48 277.755 160.396C276.869 161.637 275.952 162.883 275.07 164.084C272.8 167.15 270.468 170.32 268.67 173.699C267.295 176.317 266.429 178.697 266.04 180.977C265.603 183.468 265.553 184.751 265.583 185.382C266.009 185.34 266.47 185.307 266.853 185.39C268.337 185.717 269.467 186.82 270.016 187.445C270.558 188.075 270.791 188.769 270.946 189.278C271.019 189.492 271.092 189.707 271.158 189.835C271.283 189.872 271.559 189.905 271.755 189.927C271.988 189.951 272.248 189.982 272.52 190.041C273.519 190.258 274.466 190.625 275.379 190.978L275.795 191.147C277.518 191.812 279.867 192.718 280.805 194.71C281.784 196.754 281.92 198.45 281.218 199.887C280.022 202.378 276.665 203.159 273.97 203.794C270.867 204.516 266.145 205.377 261.244 205.377C257.156 205.377 253.693 204.773 250.944 203.579C248.757 202.621 244.963 200.602 244.068 197.771C243.251 195.217 244.403 193.234 245.336 191.644C245.673 191.073 245.984 190.529 246.197 189.996C246.575 189.07 246.656 188.621 246.68 188.427C246.54 188.36 246.334 188.271 246.174 188.194C245.439 187.87 244.438 187.428 243.436 186.399C240.902 183.781 242.1 178.941 242.362 177.991C243.022 175.651 243.904 173.648 244.75 171.707C246.071 168.695 247.317 165.85 247.473 162.177C247.737 155.971 249.392 150.211 250.977 144.641C251.909 141.388 252.868 138.028 253.557 134.587C254.045 132.156 253.71 131.289 253.465 130.998C253.184 130.662 252.541 130.49 251.539 130.49C250.785 130.49 249.851 130.585 248.514 130.787C246.417 131.106 243.996 131.259 241.095 131.259C238.957 131.259 236.818 131.181 234.919 131.106C234.236 131.082 233.547 131.069 232.848 131.063C231.062 131.042 229.211 131.02 227.369 130.698C223.803 130.074 220.014 128.504 216.343 126.983C214.386 126.173 212.535 125.408 210.775 124.81C209.53 124.385 208.244 123.836 206.88 123.256C203.801 121.958 200.622 120.609 197.873 120.609L197.702 120.616C195.152 120.666 193.802 122.754 192.239 125.179C191.775 125.887 191.307 126.611 190.795 127.298C189.258 129.366 188.345 131.416 187.763 134.154C187.478 135.502 187.233 136.872 186.963 138.315C186.075 143.183 185.156 148.208 182.763 152.612C182.122 153.789 181.407 154.897 180.716 155.97C178.56 159.281 176.708 162.149 177.51 166.147C178.286 170.041 181.874 172.899 185.351 175.666C186.642 176.694 187.861 177.667 188.949 178.689C193.229 182.716 196.47 184.076 201.796 184.076C202.303 184.076 202.863 184.057 203.43 184.032C204.012 184.001 204.564 183.96 205.077 183.917C205.812 183.862 206.512 183.8 207.213 183.8C208.88 183.8 210.877 184.103 212.968 186.339C214.437 187.91 216.696 191.458 216.494 194.28C216.113 199.665 209.419 199.829 204.53 199.948C203.2 199.982 201.938 200.008 201.056 200.144C200.007 200.295 198.97 200.472 197.877 200.65C194.754 201.182 191.537 201.725 188.241 201.725C186.794 201.725 185.473 201.628 184.169 201.422C180.679 200.86 179.642 199.568 178.202 197.775C177.825 197.313 177.399 196.786 176.877 196.204C175.22 194.368 173.316 193.336 171.109 192.15C170.712 191.935 170.302 191.712 169.891 191.489C164.897 188.72 160.942 185.282 156.653 181.397C155.721 180.548 154.631 179.631 153.47 178.659C150.121 175.845 146.328 172.657 144.23 169.416C141.881 165.787 142.67 160.959 143.362 156.701C143.613 155.163 143.853 153.715 143.917 152.471C144.252 145.782 143.402 140.55 141.249 136.016L141.08 135.663C140.494 134.429 139.524 132.368 138.379 131.893C138.193 131.819 138.049 131.769 137.924 131.751L137.589 131.729C137.315 131.769 137.054 132.053 136.457 132.839C135.826 133.669 135.033 134.704 133.702 135.397C131.267 136.662 128.654 137.041 126.132 137.403C123.169 137.83 120.376 138.236 118.213 140.051C116.911 141.148 115.814 142.361 114.739 143.653C112.861 147.538 108.923 151.202 105.732 152.73C104.342 153.398 102.889 153.723 101.488 154.038C101.446 154.051 101.412 154.06 101.376 154.066C99.4357 154.833 97.4407 155.644 95.8617 156.728C93.1587 158.597 91.5807 161.36 89.9427 164.51C88.7527 166.775 88.3607 168.872 87.9127 171.314C87.7057 172.445 87.4847 173.599 87.1847 174.85C87.0587 175.347 86.9237 175.845 86.7927 176.345C86.0287 179.233 85.2997 181.978 86.1397 184.7C86.9607 184.661 87.8277 184.326 88.7467 183.971C90.0367 183.468 91.5287 182.895 93.2157 183.037C96.5217 183.297 99.5287 185.52 101.725 187.138C104.079 188.877 105.768 192.381 105.837 195.663C105.892 198.183 104.989 200.321 103.294 201.692C101.558 203.093 98.3317 203.447 95.7417 203.741C95.1607 203.809 94.6357 203.867 94.2197 203.931C91.5637 204.333 88.6687 204.691 85.6467 204.66C85.3197 204.657 84.9887 204.657 84.6487 204.65C79.6777 204.621 72.8577 204.568 70.7527 198.879C69.8357 196.397 69.3587 194.02 68.8957 191.72C68.1397 187.975 67.4297 184.447 64.8877 181.091C61.5117 176.628 62.2297 172.378 62.9887 167.887C63.1397 167.005 63.2947 166.092 63.4217 165.152C63.8887 161.83 64.1007 159.048 63.6427 156.273C63.5367 155.633 63.2617 154.806 62.9707 153.926C62.3407 152.018 61.6247 149.857 62.0997 148.032C63.1137 144.07 66.8427 142.73 70.1297 141.553C71.8457 140.94 73.4717 140.346 74.6047 139.475C73.4157 130.695 77.4357 121.691 80.6747 114.412C81.6787 112.158 82.4807 109.752 83.3367 107.21C84.7357 103.044 86.1737 98.733 88.5687 95.124L89.4047 93.856C92.1207 89.765 94.9257 85.536 97.4717 81.259C97.8317 80.654 98.1967 80.06 98.5497 79.479C100.029 77.064 101.414 74.791 102.435 72.03C103.876 68.142 105.341 65.061 107.211 62.163C103.522 62.373 96.4857 62.448 82.8177 62.599C69.7357 62.728 54.9107 62.879 51.9277 63.361C43.2547 64.764 22.2457 69.783 14.2917 85.987C11.3847 91.908 9.82968 101.491 13.2697 108.553C15.7757 113.697 24.1497 122.275 29.3347 122.725C30.0267 122.78 30.6937 122.839 31.3237 122.894C37.8337 123.43 42.1397 123.789 48.3467 127.98C52.5347 130.808 57.0517 135.081 62.1527 141.058L63.6577 142.829L61.4077 143.41C55.8617 144.842 50.1207 146.317 44.4467 146.317C40.4197 146.317 36.7257 145.583 33.1647 144.079C28.7367 142.214 25.8147 140.972 23.7047 136.313C23.4787 135.816 23.3937 135.14 23.2627 133.877C23.1877 133.181 23.0597 131.977 22.8987 131.408C13.4997 128.022 6.88668 122.322 3.22468 114.469C-0.151324 107.217 -0.880325 98.45 1.05568 88.404C2.53668 80.731 6.58068 73.993 12.7357 68.927C34.3687 51.125 59.5737 49.978 86.2497 48.768L89.7427 48.603C101.107 48.076 109.782 46.361 120.694 42.496C132.821 38.202 143.007 34.872 154.409 34.263L154.658 34.25C157.632 34.106 160.791 34.029 164.049 34.029C173.719 34.029 183.51 34.675 192.975 35.299C202.399 35.921 212.145 36.564 221.727 36.564C222.935 36.564 224.133 36.559 225.351 36.537C237.798 36.313 250.167 34.286 262.137 32.316C267.234 31.475 272.514 30.608 277.76 29.888L278.37 29.809C285.336 28.851 292.086 27.142 298.948 25.898C299.186 25.857 299.425 25.8 299.658 25.744C299.641 25.76 299.629 25.772 299.604 25.787H299.603C299.247 26.047 298.898 26.322 298.558 26.596C297.511 27.484 296.521 28.443 295.59 29.466C294.679 30.505 293.84 31.595 293.062 32.734C292.275 33.871 291.594 35.07 290.963 36.298C290.332 37.529 289.757 38.791 289.288 40.087C288.809 41.385 288.409 42.718 288.077 44.063C287.916 44.741 287.774 45.423 287.649 46.111L287.327 48.101C286.469 53.328 285.393 58.548 283.234 63.284C282.125 65.623 280.743 67.859 278.755 69.482C277.771 70.303 276.632 70.928 275.39 71.336C274.15 71.743 272.817 71.894 271.473 71.857C272.787 72.144 274.175 72.206 275.54 71.961C276.913 71.728 278.236 71.167 279.427 70.403C280.611 69.635 281.632 68.644 282.536 67.579C283.445 66.509 284.19 65.327 284.867 64.113C286.213 61.689 287.158 59.087 287.93 56.46C288.323 55.153 288.654 53.822 288.938 52.494C289.232 51.165 289.483 49.828 289.713 48.493L290.033 46.508C290.137 45.875 290.261 45.247 290.403 44.609C290.688 43.353 291.051 42.099 291.478 40.871C291.9 39.645 292.364 38.43 292.912 37.243C293.452 36.053 294.064 34.906 294.711 33.771C295.361 32.641 296.083 31.55 296.874 30.503C297.643 29.452 298.489 28.441 299.402 27.498C300.07 26.783 300.783 26.109 301.53 25.469L301.546 25.4081L301.643 25.389C302.308 24.826 303.001 24.281 303.723 23.769C304.186 23.508 304.653 23.255 305.136 23C307.075 21.952 308.016 20.57 309.184 18.821C309.787 17.917 310.411 16.985 311.23 16.018C312.914 14.05 314.839 12.054 317.586 10.723C318.389 10.331 319.215 10.018 320.111 9.76404C323.645 8.76104 327.141 7.86205 331.099 7.95105C331.716 7.96205 332.311 7.96905 332.891 7.97205C335.18 7.98505 337.349 7.99704 339.913 8.64804C342.057 9.19404 343.724 9.00705 346.052 7.95705C347.479 7.31405 348.88 6.60305 350.296 5.89505C351.119 5.48505 351.94 5.07304 352.751 4.67604C357.31 2.47104 362.69 0.216047 369 1.38605C372.09 1.95705 375.178 1.43904 378.441 0.872039C378.676 0.826039 378.897 0.780036 379.12 0.738036L379.13 0.757049C382.197 0.223049 385.358 -0.272951 388.657 0.173049C391.124 0.505049 393.52 0.976035 395.756 3.11504C396.731 4.05204 397.316 5.25104 397.837 6.32204C398.205 7.07304 398.618 7.93104 398.976 8.15404C399.656 8.58704 400.649 8.79504 401.698 9.01604C403.192 9.33104 404.88 9.68904 406.35 10.81C408.706 12.602 410.593 15.32 411.816 18.668C412.197 19.686 412.417 20.84 412.668 22.077C413.587 26.659 414.384 28.758 417.638 28.301C417.976 28.251 418.348 28.13 418.746 27.937C419.733 27.452 420.819 26.545 421.592 25.562L423.844 22.666L424.179 26.319C424.471 29.424 423.382 31.965 421.086 33.596C422.691 34.896 424.807 36.8581 426.552 39.3391C427.248 40.2521 427.797 41.257 428.329 42.24C428.513 42.573 428.69 42.909 428.874 43.238L428.736 43.327C429.086 44.215 429.379 45.146 429.572 46.118C429.771 47.194 429.799 47.755 429.805 48.115C429.805 48.204 429.805 48.263 429.814 48.331C429.87 48.531 430.452 49.473 430.801 50.041C431.592 51.324 432.777 52.606 433.911 53.843C434.22 54.176 434.521 54.506 434.806 54.816C436.172 56.343 437.391 57.77 438.568 59.155C440.877 61.881 443.064 64.462 446 67.211C446.361 67.548 446.707 67.854 447.02 68.137C448.843 69.736 450.411 71.118 449.912 74.42ZM293.938 135.875C293.82 135.88 293.696 135.888 293.566 135.901L293.544 135.925L293.566 135.9C293.695 135.887 293.819 135.88 293.938 135.875ZM411.103 37.228C409.608 37.788 408.045 38.121 406.458 38.373C403.278 38.895 399.931 39.076 396.571 40.146C395.745 40.424 394.915 40.755 394.115 41.168C393.319 41.59 392.547 42.096 391.854 42.694C390.455 43.883 389.39 45.443 388.737 47.081C388.39 47.925 388.162 48.801 388.063 49.707C387.957 50.611 388.011 51.534 388.236 52.416C388.478 53.287 388.891 54.115 389.471 54.779C390.056 55.441 390.776 55.947 391.546 56.28C390.918 55.719 390.384 55.089 390.032 54.393C389.668 53.697 389.453 52.959 389.41 52.204C389.307 50.705 389.746 49.206 390.456 47.893C391.191 46.536 392.137 45.366 393.31 44.465C394.472 43.564 395.847 42.921 397.324 42.443C400.286 41.487 403.589 41.126 406.86 40.228C408.494 39.778 410.133 39.19 411.618 38.296C413.091 37.399 414.412 36.202 415.254 34.754C413.992 35.855 412.601 36.685 411.103 37.228ZM137.598 131.722C137.598 131.722 150.876 107.287 175.925 106.331C175.925 106.331 150.088 102.078 137.598 131.722ZM180.018 91.392C179.601 84.04 180.92 77.757 177.661 69.647C177.129 68.341 175.964 67.484 174.894 66.578C180.547 71.418 176.637 83.109 179.058 97.6171C181.477 112.136 198.857 120.487 198.857 120.487C196.162 118.478 193.571 116.319 191.189 113.94C185.032 107.804 180.522 100.22 180.018 91.392ZM259.943 112.418C259.048 113.964 258.54 115.682 258.212 117.391C257.599 120.839 257.682 124.323 258.124 127.738C258.185 128.167 258.258 128.581 258.301 128.968C258.354 129.362 258.389 129.76 258.423 130.159C258.498 130.962 258.523 131.764 258.523 132.573C258.523 134.188 258.409 135.817 258.213 137.45C257.858 140.729 257.15 144.052 256.965 147.46C258.134 144.276 259.336 141.137 260.1 137.772C260.476 136.097 260.728 134.375 260.82 132.628C260.863 131.752 260.854 130.879 260.814 129.999C260.782 129.557 260.737 129.116 260.686 128.685C260.644 128.234 260.577 127.814 260.526 127.413C260.1 124.169 259.861 120.872 260.091 117.64C260.216 116.033 260.464 114.429 261.006 112.925C261.543 111.426 262.45 110.039 263.895 109.105C263.068 109.322 262.288 109.766 261.616 110.348C260.954 110.932 260.408 111.654 259.943 112.418Z" fill="black"/>
<path d="M140.906 109.245V91.835L138.75 99.832H131.628L129.527 91.882V109.245H122.089V68.926H129.388L135.219 87.346L141.049 68.926H148.353V109.245H140.906Z" fill="white"/>
<path d="M148.672 68.607H148.034H141.284H140.817L140.676 69.052L135.22 86.287L129.764 69.052L129.624 68.607H129.156H122.41H121.771V69.246V108.927V109.565H122.41H129.21H129.848V108.927V94.341L131.258 99.677L131.384 100.152H131.875H138.506H138.995L139.123 99.68L140.587 94.246V108.927V109.565H141.226H148.035H148.673V108.927V69.246V68.607H148.672ZM148.033 69.246V108.927H141.224V89.425L138.505 99.513H131.874L129.209 89.425V108.927H122.409V69.246H129.155L135.219 88.404L141.284 69.246H148.033Z" fill="white"/>
<path d="M163.977 76.365H159.682V90.011H163.977V76.365ZM163.977 109.245V97.452H159.682V109.245H152.244V73.439C152.244 70.951 154.267 68.926 156.754 68.926H166.963C169.451 68.926 171.476 70.951 171.476 73.439V109.245H163.977Z" fill="white"/>
<path d="M160.001 76.685H163.658V89.693H160.001V76.685ZM166.963 68.607H156.754C154.091 68.607 151.924 70.775 151.924 73.439V108.926V109.565H152.563H159.363H160.001V108.926V97.772H163.658V108.926V109.565H164.296H171.156H171.794V108.926V81.319V74.969V73.439C171.794 70.775 169.628 68.607 166.963 68.607ZM159.363 90.333H164.296V76.048H159.363V90.333ZM166.963 69.245C169.229 69.245 171.156 71.114 171.156 73.439V74.969V81.319V108.926H164.296V97.133H159.363V108.926H152.563V73.439C152.563 71.114 154.431 69.245 156.754 69.245H166.963Z" fill="white"/>
<path d="M187.575 109.245L187.455 108.776L182.426 92.75H182.354V109.245H174.912V68.926H182.354V85.188L187.53 68.926H195.115L188.664 89.034L195.115 109.245H187.575Z" fill="white"/>
<path d="M195.553 68.607H194.677H187.764H187.297L187.155 69.051L182.675 83.1301V69.245V68.606H182.037H175.232H174.594V69.245V108.926V109.564H175.232H182.037H182.675V108.926V94.609L187.155 108.888L187.205 109.086L187.329 109.565H187.823H194.677H195.552L195.287 108.732L189 89.034L195.287 69.441L195.553 68.607ZM194.677 69.246L188.33 89.034L194.677 108.927H187.823L187.764 108.697L182.66 92.431H182.037V108.926H175.232V69.245H182.037V85.629H182.549L187.764 69.245H194.677V69.246Z" fill="white"/>
<path d="M196.401 109.245V68.926H215.632V76.365H203.841V85.3111H213.253V92.75H203.841V101.75H215.632V109.245H196.401Z" fill="white"/>
<path d="M215.952 68.607H215.313H196.72H196.082V69.246V108.927V109.565H196.72H215.313H215.952V108.927V102.068V101.429H215.313H204.16V93.069H212.934H213.572V92.431V85.629V84.991H212.934H204.16V76.685H215.313H215.952V76.047V69.246V68.607ZM215.314 69.246V76.047H203.522V85.6301H212.934V92.432H203.522V102.069H215.314V108.928H196.721V69.247L215.314 69.246Z" fill="white"/>
<path d="M227.803 68.926H235.24V109.245H227.803V68.926Z" fill="white"/>
<path d="M235.559 68.607H234.92H228.122H227.484V69.246V108.927V109.565H228.122H234.92H235.559V108.927V69.246V68.607ZM234.92 108.927H228.122V69.246H234.92V108.927Z" fill="white"/>
<path d="M250.438 109.245L246.009 93.847V109.245H238.569V68.926H245.868L250.303 83.386V68.926H257.798V109.245H250.438Z" fill="white"/>
<path d="M258.117 68.607H257.478H250.621H249.983V69.246V81.257L246.242 69.06L246.104 68.608H245.631H238.888H238.249V69.247V108.928V109.566H238.888H245.69H246.328V108.928V96.112L250.064 109.103L250.197 109.565H250.679H257.478H258.117V108.927V69.246V68.607ZM257.478 69.246V108.927H250.679L245.691 91.583V108.927H238.889V69.246H245.632L250.621 85.516V69.246H257.478Z" fill="white"/>
<path d="M271.331 68.926H278.77V109.245H271.331V68.926Z" fill="white"/>
<path d="M279.09 68.607H278.451H271.65H271.011V69.246V108.927V109.565H271.65H278.451H279.09V108.927V69.246V68.607ZM278.451 108.927H271.65V69.246H278.451V108.927Z" fill="white"/>
<path d="M293.968 109.245L289.539 93.847V109.245H282.1V68.926H289.4L293.835 83.386V68.926H301.332V109.245H293.968Z" fill="white"/>
<path d="M301.651 68.607H301.013H294.154H293.515V69.246V81.257L289.775 69.06L289.637 68.608H289.164H282.419H281.781V69.247V108.928V109.566H282.419H289.22H289.858V108.928V96.112L293.594 109.103L293.727 109.565H294.209H301.014H301.652V108.927V69.246V68.607H301.651ZM301.013 69.246V108.927H294.208L289.22 91.583V108.927H282.419V69.246H289.164L294.154 85.516V69.246H301.013Z" fill="white"/>
<path d="M316.507 76.365H312.209V101.748H316.507V76.365ZM304.769 109.245V68.925H319.489C321.979 68.925 324.004 70.95 324.004 73.438V104.728C324.004 107.176 321.937 109.245 319.489 109.245H304.769Z" fill="white"/>
<path d="M312.529 76.685H316.188V101.43H312.529V76.685ZM319.489 68.607H305.088H304.449V69.245V108.926V109.565H305.088H319.489C322.109 109.565 324.323 107.35 324.323 104.73V73.439C324.323 70.775 322.155 68.607 319.489 68.607ZM311.89 102.07H316.826V76.048H311.89V102.07ZM319.489 69.245C321.757 69.245 323.684 71.114 323.684 73.439V104.73C323.684 106.997 321.757 108.926 319.489 108.926H305.088V69.245H319.489Z" fill="white"/>
<path d="M327.783 68.926H335.221V109.245H327.783V68.926Z" fill="white"/>
<path d="M335.54 68.607H334.902H328.102H327.463V69.246V108.927V109.565H328.102H334.902H335.54V108.927V69.246V68.607ZM334.902 108.927H328.102V69.246H334.902V108.927Z" fill="white"/>
<path d="M350.289 76.365H345.997V90.011H350.289V76.365ZM350.289 109.245V97.452H345.997V109.245H338.552V73.439C338.552 70.951 340.577 68.926 343.065 68.926H353.267C355.756 68.926 357.782 70.951 357.782 73.439V109.245H350.289Z" fill="white"/>
<path d="M346.317 76.685H349.969V89.693H346.317V76.685ZM353.267 68.607H343.066C340.402 68.607 338.235 70.775 338.235 73.439V108.926V109.565H338.873H345.678H346.316V108.926V97.772H349.968V108.926V109.565H350.606H357.462H358.101V108.926V81.319V74.969V73.439C358.102 70.775 355.933 68.607 353.267 68.607ZM345.678 90.333H350.607V76.048H345.678V90.333ZM353.267 69.245C355.537 69.245 357.464 71.114 357.464 73.439V74.969V81.319V108.926H350.608V97.133H345.679V108.926H338.874V73.439C338.874 71.114 340.742 69.245 343.066 69.245H353.267Z" fill="white"/>
</svg>
