<svg width="75" height="40" viewBox="0 0 75 40" fill="none" xmlns="http://www.w3.org/2000/svg">
<g clip-path="url(#clip0)">
<path d="M18.6478 29.3129C19.1712 29.2257 19.8255 29.1603 20.6979 29.1603C21.7448 29.1603 22.5082 29.4002 23.0098 29.8364C23.4678 30.229 23.7296 30.8179 23.7296 31.5594C23.7296 32.301 23.5115 32.8898 23.0971 33.326C22.53 33.9149 21.614 34.2203 20.5889 34.2203C20.2617 34.2203 19.9782 34.1984 19.7383 34.1548V37.4482H18.6696V29.3129H18.6478ZM19.7165 33.2824C19.9564 33.3478 20.2399 33.3697 20.5889 33.3697C21.8757 33.3697 22.6609 32.7372 22.6609 31.603C22.6609 30.5125 21.8975 29.9891 20.7197 29.9891C20.2617 29.9891 19.8909 30.0327 19.7165 30.0763V33.2824Z" fill="#1A1D21"/>
<path d="M29.88 35.8342C29.88 36.4449 29.9019 36.9902 29.9237 37.4482H28.964L28.8986 36.4885H28.8768C28.5932 36.9683 27.9826 37.579 26.9138 37.579C25.976 37.579 24.8637 37.0556 24.8637 34.9836V31.5376H25.9324V34.8091C25.9324 35.9433 26.2814 36.6848 27.241 36.6848C27.9607 36.6848 28.4624 36.1832 28.6587 35.7034C28.7241 35.5507 28.7459 35.3544 28.7459 35.1581V31.5376H29.8146V35.8342H29.88Z" fill="#1A1D21"/>
<path d="M31.6685 33.3915C31.6685 32.6935 31.6467 32.1047 31.6249 31.5376H32.5627L32.6063 32.6935H32.6499C32.9117 31.9084 33.566 31.4067 34.2857 31.4067C34.4166 31.4067 34.5038 31.4285 34.5911 31.4504V32.4536C34.482 32.4318 34.373 32.41 34.2203 32.41C33.4569 32.41 32.9335 32.9771 32.7808 33.7841C32.759 33.9367 32.7372 34.1112 32.7372 34.2857V37.4264H31.6685V33.3915V33.3915Z" fill="#1A1D21"/>
<path d="M39.7383 37.2301C39.4547 37.3828 38.8441 37.5791 38.0371 37.5791C36.2486 37.5791 35.0927 36.3795 35.0927 34.5693C35.0927 32.759 36.3359 31.4286 38.277 31.4286C38.9095 31.4286 39.4766 31.5813 39.7601 31.7339L39.5202 32.5627C39.2585 32.41 38.8659 32.2792 38.277 32.2792C36.9248 32.2792 36.1832 33.2825 36.1832 34.5038C36.1832 35.8779 37.0556 36.7067 38.2334 36.7067C38.8441 36.7067 39.2366 36.554 39.542 36.4231L39.7383 37.2301Z" fill="#1A1D21"/>
<path d="M41.0033 28.7896H42.072V32.4755H42.0938C42.2683 32.1701 42.53 31.9084 42.8571 31.7121C43.1843 31.5376 43.5551 31.4068 43.9477 31.4068C44.7328 31.4068 46.0196 31.8866 46.0196 33.9368V37.4482H44.9509V34.0458C44.9509 33.0862 44.602 32.2792 43.5769 32.2792C42.879 32.2792 42.3337 32.759 42.1374 33.3479C42.072 33.5006 42.072 33.6532 42.072 33.8713V37.4482H41.0033V28.7896Z" fill="#1A1D21"/>
<path d="M51.0578 37.4483L50.9706 36.7067H50.9269C50.5998 37.1647 49.9673 37.5791 49.1167 37.5791C47.9171 37.5791 47.3064 36.7285 47.3064 35.8779C47.3064 34.4384 48.5714 33.6751 50.8615 33.6751V33.5442C50.8615 33.0644 50.7306 32.1702 49.5093 32.1702C48.964 32.1702 48.3751 32.3447 47.9607 32.6064L47.7208 31.9085C48.2007 31.5813 48.9204 31.385 49.6619 31.385C51.4722 31.385 51.9084 32.6282 51.9084 33.8059V36.0088C51.9084 36.5322 51.9302 37.0121 51.9956 37.4265H51.0578V37.4483ZM50.9051 34.4384C49.7274 34.4166 48.3969 34.6129 48.3969 35.7689C48.3969 36.4668 48.855 36.794 49.4002 36.794C50.1636 36.794 50.6652 36.3141 50.8397 35.8125C50.8833 35.7034 50.9051 35.5726 50.9051 35.4635V34.4384Z" fill="#1A1D21"/>
<path d="M53.5224 36.3577C53.8495 36.5758 54.3948 36.7939 54.94 36.7939C55.7252 36.7939 56.096 36.4013 56.096 35.9215C56.096 35.398 55.7906 35.1363 55.0055 34.8309C53.9368 34.4602 53.4351 33.8713 53.4351 33.1516C53.4351 32.1919 54.1985 31.4067 55.4853 31.4067C56.0742 31.4067 56.6194 31.5812 56.9466 31.7775L56.6848 32.5627C56.4449 32.41 56.0305 32.2137 55.4853 32.2137C54.8528 32.2137 54.5038 32.5845 54.5038 33.0207C54.5038 33.5005 54.8528 33.7186 55.638 34.024C56.663 34.4166 57.1865 34.9182 57.1865 35.8124C57.1865 36.8593 56.3795 37.579 54.9836 37.579C54.3293 37.579 53.7405 37.4264 53.3261 37.1865L53.5224 36.3577Z" fill="#1A1D21"/>
<path d="M59.6947 29.8801C59.7165 30.2509 59.4329 30.5344 59.0185 30.5344C58.6478 30.5344 58.3642 30.2509 58.3642 29.8801C58.3642 29.5093 58.6478 29.204 59.0404 29.204C59.4547 29.204 59.6947 29.5093 59.6947 29.8801ZM58.4951 37.4483V31.5377H59.5638V37.4483H58.4951Z" fill="#1A1D21"/>
<path d="M61.374 33.1516C61.374 32.5409 61.3522 32.0393 61.3304 31.5594H62.2901L62.3555 32.5409H62.3773C62.6609 31.9738 63.3588 31.4286 64.3402 31.4286C65.169 31.4286 66.434 31.9084 66.434 33.9368V37.47H65.3653V34.0676C65.3653 33.108 65.0164 32.3228 63.9913 32.3228C63.2933 32.3228 62.7263 32.8244 62.5518 33.4133C62.5082 33.5442 62.4864 33.7405 62.4864 33.915V37.47H61.4177V33.1516H61.374Z" fill="#1A1D21"/>
<path d="M73.2388 31.5376C73.217 31.9738 73.1952 32.4319 73.1952 33.1516V36.5758C73.1952 37.928 72.9335 38.7568 72.3446 39.2803C71.7775 39.8255 70.9487 39.9782 70.1854 39.9782C69.4875 39.9782 68.7023 39.8037 68.2225 39.4984L68.4842 38.6696C68.8768 38.9095 69.4875 39.1276 70.229 39.1276C71.3195 39.1276 72.1265 38.5605 72.1265 37.0556V36.4013H72.1047C71.7775 36.9466 71.145 37.3828 70.229 37.3828C68.7677 37.3828 67.7208 36.1396 67.7208 34.5038C67.7208 32.4973 69.0295 31.3632 70.3817 31.3632C71.4068 31.3632 71.9738 31.9084 72.2356 32.3882H72.2574L72.301 31.494H73.2388V31.5376ZM72.1265 33.8713C72.1265 33.6969 72.1047 33.5224 72.0611 33.3915C71.8648 32.759 71.3413 32.2574 70.5562 32.2574C69.5311 32.2574 68.7895 33.1298 68.7895 34.482C68.7895 35.638 69.3784 36.5976 70.5344 36.5976C71.1887 36.5976 71.7994 36.1832 72.0175 35.5071C72.0829 35.3326 72.1047 35.1145 72.1047 34.94V33.8713H72.1265Z" fill="#1A1D21"/>
<path d="M36.6848 0.414395L31.7339 23.5551H25.7361L30.687 0.414395H36.6848ZM61.8539 15.3544L64.9945 6.67394L66.8048 15.3544H61.8539ZM68.5496 23.5551H74.0894L69.2475 0.414395H64.1439C62.988 0.414395 62.0283 1.09051 61.5921 2.11559L52.6063 23.5551H58.8877L60.1309 20.1091H67.8299L68.5496 23.5551ZM52.9117 16.0087C52.9335 9.90186 44.4711 9.5747 44.5147 6.82661C44.5365 5.99782 45.3217 5.1036 47.0447 4.8855C47.8953 4.77645 50.2726 4.6892 52.9553 5.91058L54.0022 1.00327C52.5845 0.501636 50.7306 0 48.4188 0C42.5082 0 38.3424 3.14068 38.2988 7.6554C38.2552 10.9924 41.265 12.8462 43.5333 13.9586C45.867 15.0927 46.6521 15.8124 46.6303 16.8375C46.6085 18.386 44.7764 19.084 43.0534 19.1058C40.0436 19.1494 38.2988 18.2988 36.9029 17.6445L35.8124 22.7045C37.2083 23.337 39.7819 23.904 42.4646 23.9258C48.7895 23.9258 52.8899 20.807 52.9117 16.0087ZM28.1352 0.414395L18.4297 23.5551H12.1047L7.32824 5.1036C7.04471 3.96947 6.78299 3.55507 5.91058 3.07525C4.4711 2.29008 2.09378 1.54853 0 1.09051L0.152672 0.414395H10.3381C11.6467 0.414395 12.8026 1.2868 13.108 2.7699L15.6379 16.1614L21.8757 0.414395H28.1352V0.414395Z" fill="#1A1D21"/>
</g>
<defs>
<clipPath id="clip0">
<rect width="74.0894" height="40" fill="white"/>
</clipPath>
</defs>
</svg>
