<?xml version="1.0" encoding="UTF-8"?><svg id="uuid-aadae68e-ae56-4d8e-809f-62d6a25cc863" xmlns="http://www.w3.org/2000/svg" viewBox="0 0 464.05 102.33">
<title>BigBasket logo - Brandlogos.net</title><path d="M14.59,0h68.28c8.04,0,14.72,6.62,14.72,14.59v68.98c0,8.12-6.68,14.73-14.72,14.73H14.59c-8.04,0-14.59-6.61-14.59-14.73V14.59C0,6.62,6.55,0,14.59,0Z" style="fill:#a6ce39; fill-rule:evenodd;"/><path d="M51.04,12.32h-7.76v21.2c2.78-.03,5.39.86,7.76,2.4V12.32Z" style="fill:#231f20; fill-rule:evenodd;"/><path d="M45.3,71.79c-1.77,3.03-4.35,4.4-7.91,4.4-2.46,0-4.5-.69-6.27-2.07-1.77-1.52-3.13-3.44-3.95-5.79-.82-2.35-1.36-4.81-1.36-7.44s.54-5.23,1.36-7.57c.82-2.35,2.18-4.27,3.95-5.64,1.77-1.52,3.81-2.2,6.27-2.2,2.32,0,4.35.69,5.99,2.07,1.51,1.37,2.72,3.31,3.54,5.64.69,2.35,1.1,4.81,1.1,7.71,0,4.4-.95,7.99-2.72,10.88v.02ZM59.07,48.65c-1.51-3.85-3.81-7.03-6.81-9.36-3-2.35-6.55-3.57-10.77-3.57-3,0-5.86.55-8.45,1.79-2.59,1.24-4.76,3.03-6.27,5.37h-.13V12.32h-12.82v73.51s11.72,1.37,12.13-6.2v-1.24l.13.55c.28.55.69,1.24,1.36,2.2.95,1.11,2.46,2.2,4.76,3.31,2.46,1.11,5.45,1.52,9.27,1.52,4.22,0,7.78-1.11,10.77-3.44,3-2.48,5.32-5.51,6.81-9.36,1.51-3.99,2.32-8.12,2.32-12.25s-.82-8.25-2.32-12.25h.02Z" style="fill:#ed1c24; fill-rule:evenodd;"/><path d="M81.45,48.67c-4.14-10.63-15.75-16.07-26.03-11.15-.46.21-.92.46-1.34.71,1.54,1.39,2.93,2.99,4.12,4.78,1.28-.45,2.65-.66,4.14-.66,9.87,0,12.8,10.53,12.8,18.57s-3.13,18.41-12.8,18.41c-1.64,0-3.13-.25-4.49-.76-1.38,1.95-2.98,3.67-4.75,5.11.44.25.93.51,1.47.76,2.46,1.11,5.45,1.52,9.27,1.52,4.22,0,7.76-1.11,10.77-3.44,3-2.48,5.32-5.51,6.81-9.36,1.51-3.99,2.31-8.12,2.31-12.25s-.82-8.25-2.31-12.25l.02.02Z" style="fill:#231f20; fill-rule:evenodd;"/><path d="M139.66,71.49c-1.85,3.04-4.39,4.43-7.86,4.43-2.54,0-4.62-.69-6.24-2.1-1.85-1.41-3.24-3.51-3.93-5.84-.92-2.33-1.39-4.66-1.39-7.48,0-2.56.46-4.91,1.39-7.47.69-2.33,2.08-4.2,3.93-5.61,1.62-1.41,3.7-2.1,6.24-2.1,2.31,0,4.16.69,5.78,2.1,1.62,1.41,2.77,3.27,3.7,5.37.69,2.56,1.16,5.14,1.16,7.94,0,4.2-.92,7.94-2.77,10.75h-.02ZM153.29,48.37c-1.39-3.74-3.7-6.78-6.71-9.34-3.01-2.33-6.71-3.51-10.87-3.51-3.01,0-5.78.69-8.32,1.87-2.77,1.17-4.86,2.79-6.24,5.14h-.23V12.4h-12.72v73.11s11.56,1.41,12.02-6.3v-.93l.23.46c.23.46.69,1.17,1.39,2.1.93,1.17,2.54,2.1,4.86,3.27,2.31,1.17,5.32,1.64,9.02,1.64,4.16,0,7.86-1.17,10.87-3.51,3.01-2.33,5.32-5.61,6.71-9.34,1.62-3.97,2.31-7.94,2.31-12.14s-.69-8.4-2.31-12.39l-.02-.02Z" style="fill:#ed1c24; fill-rule:evenodd;"/><path d="M171.79,36.93v48.82h-12.72v-48.82h12.72ZM159.07,23.15v-10.75h12.72v10.75h-12.72Z" style="fill:#ed1c24; fill-rule:evenodd;"/><path d="M209.02,64.96c-.46,1.64-.92,3.04-1.85,4.2-.93,1.17-2.08,2.1-3.47,2.8-1.39.93-3.01,1.17-4.86,1.17s-3.47-.46-4.86-1.17c-1.39-.93-2.31-2.1-3.24-3.51-.69-1.17-1.39-2.8-1.62-4.43-.46-1.64-.46-3.51-.46-5.14,0-1.87.23-3.51.46-5.14.46-1.64,1.16-3.04,1.85-4.2.92-1.41,2.08-2.33,3.24-3.04,1.39-.69,3.01-1.17,4.62-1.17,2.08,0,3.93.46,5.32,1.17,1.39.93,2.54,1.87,3.24,3.27.92,1.41,1.39,3.04,1.85,4.66.23,1.64.46,3.51.46,5.61,0,1.64-.23,3.27-.69,4.91l.02.02ZM209.71,43.25h-.23c-1.39-2.79-3.47-4.66-5.78-5.84-2.31-1.17-4.86-1.87-7.86-1.87-3.24,0-6.24.69-8.56,1.87-2.54,1.41-4.62,3.04-6.24,5.37-1.85,2.1-3.01,4.66-3.93,7.48-.92,2.81-1.16,5.84-1.16,8.88,0,3.27.23,6.3.93,9.11.92,3.04,2.08,5.61,3.7,7.71,1.62,2.1,3.7,3.97,6.24,5.14,2.31,1.17,5.32,1.87,8.79,1.87,2.77,0,5.55-.46,8.09-1.64,2.54-1.41,4.62-3.27,5.78-5.61h.23v6.07c.23,3.51-.69,6.3-2.31,8.4-1.62,2.33-4.16,3.27-7.86,3.27-2.31,0-4.16-.46-6.01-1.41-1.62-.93-3.01-2.56-3.47-4.91h-12.72c.23,2.56.92,4.91,2.31,6.78,1.16,1.87,2.77,3.51,4.86,4.66,1.85,1.41,3.93,2.33,6.47,2.79,2.31.69,4.62.94,6.94.94,5.32,0,9.48-.69,12.72-2.33,3.01-1.41,5.55-3.27,7.17-5.37,1.62-2.1,2.77-4.2,3.24-6.78.69-2.33.92-4.66.92-6.53v-44.37h-1.62c-10.17.23-10.64,6.3-10.64,6.3Z" style="fill:#ed1c24; fill-rule:evenodd;"/><path d="M464.05,43.94v-.93c-.69-5.61-7.63-5.61-7.63-5.61V12.17h-7.86v25.22h-6.47v6.53h6.47v31.77c0,5.61,1.62,10.27,9.48,10.27.93,0,3.24-.46,6.01-.69v-6.3h-2.77c-1.62,0-4.86,0-4.86-3.74v-31.29h7.63Z" style="fill:#231f20; fill-rule:evenodd;"/><path d="M397.92,40.2c-4.39-4.66-9.71-.46-10.64.46l-17.79,17.51V12.17h-7.63v73.81h7.63v-18.22l6.71-6.07,14.8,24.29h10.17l-19.19-30.13,15.96-15.64h-.02Z" style="fill:#231f20; fill-rule:evenodd;"/><path d="M343.58,57.48l-7.86-2.1c-6.24-1.64-8.79-2.56-8.79-6.3,0-6.07,7.17-6.78,9.48-6.78,5.32,0,8.09,1.17,9.48,3.04,0,0,4.39,5.14,9.48,3.51-.46-3.97-3.47-13.54-18.04-13.54-9.48,0-18.04,4.66-18.04,15.18,0,6.53,4.39,10.04,11.1,11.68l9.25,2.33c6.71,1.64,9.25,3.04,9.25,6.78,0,5.37-5.09,7.71-10.87,7.71-11.1,0-12.26-6.07-12.49-9.81h-7.86c.46,5.84,1.85,16.82,20.58,16.82,10.64,0,18.73-6.07,18.73-15.88,0-6.53-3.47-10.27-13.41-12.62l.02-.02Z" style="fill:#231f20; fill-rule:evenodd;"/><path d="M420.12,42.53c9.71,0,12.72,6.78,13.18,14.26h-20.35c-3.01.23-4.86,1.64-6.01,3.04v-3.04c0-7.48,5.78-14.26,13.18-14.26ZM420.8,78.97c-9.25,0-13.87-5.84-13.87-15.88h34.67c0-16.82-6.71-27.8-20.35-27.8-15.72,0-22.89,11.68-22.89,26.63,0,13.78,7.86,24.06,21.27,24.06,7.63,0,10.64-1.87,12.95-3.51,6.01-3.97,8.09-10.75,8.32-13.08h-7.86c-.46,3.74-4.86,9.58-12.26,9.58h.02Z" style="fill:#231f20; fill-rule:evenodd;"/><path d="M303.82,67.99c0,6.3-7.4,11.21-14.8,11.21-6.01,0-8.56-3.04-8.56-8.4,0-6.07,6.24-7.24,10.17-7.71,9.94-1.41,11.79-2.1,13.18-3.04v7.94h.02ZM314.46,78.97c-1.62,0-2.77-.69-2.77-2.8v-27.57c0-12.39-13.64-13.31-17.57-13.31-11.56,0-18.96,4.43-19.42,15.41,4.39.69,7.17-1.87,8.32-3.74.23-.46.46-.94.92-1.41,1.39-2.1,3.93-3.74,8.79-3.74,7.63,0,11.33,2.79,11.33,7.94,0,4.66-2.31,5.37-4.16,5.61l-13.18,1.64c-13.41,1.64-14.57,10.98-14.57,14.95,0,8.4,6.24,14.01,15.03,14.01,9.25,0,13.87-4.43,17.11-7.94.23,3.74,1.39,7.48,8.32,7.48,1.85,0,3.01-.69,4.39-.94v-5.84c-.92,0-1.85.23-2.54.23v.02Z" style="fill:#231f20; fill-rule:evenodd;"/><path d="M248.79,78.97c-5.09,0-12.95-3.51-12.95-16.11,0-7.94,1.39-20.32,12.72-20.32,12.49,0,13.18,11.68,13.18,17.98,0,10.52-4.16,18.46-12.95,18.46ZM250.18,35.29c-5.55,0-10.41,2.33-13.64,7.48h-.23V12.17h-8.09v72.4h3.01c4.16-.23,4.62-3.97,4.62-4.66v-1.41h.23c1.62,2.8,4.86,7.47,12.95,7.47,16.19,0,20.81-15.41,20.81-26.86,0-13.54-7.17-23.83-19.64-23.83h-.02Z" style="fill:#231f20; fill-rule:evenodd;"/></svg>